# xmcd
#
# Track frame offsets:
#	150
#	13110
#	34944
#	50480
#	69275
#	87026
#	102433
#	118242
#	135243
#	151713
#	166378
#	181246
#	200466
#	218821
#	237793
#
# Disc length: 3461
#
# Revision: 2
# Processed by: cddbd v1.5.1PL0 Copyright (c) Steve Scherf et al.
# Submitted via: audiograbber 1.80
# Normalized: r1:DSETVAR2
#
DISCID=c00d830f
DTITLE=Various Artist - Siempre Boleros Vol II CD1
DYEAR=1900
DGENRE=
TTITLE0=Mana - Celoso
TTITLE1=Alejandro Fernandez y Gloria Estefan - En el Jardin
TTITLE2=Lolita y Armando Manzanero - Somos Novios
TTITLE3=Amparo Sandino y Cafe Quijano - Ven y Besame
TTITLE4=Ricardo Montaner - Besame
TTITLE5=Bertin Osborne - Sabor a mi
TTITLE6=Francisco Cespedes - Que hago contigo
TTITLE7=Miguel Bose y Tania Libertad - Tres palabras
TTITLE8=Olga Tañon - Te Acordaras de mi
TTITLE9=La Barberia del Sur - Sigues siendo mia
TTITLE10=Casandra - Tomame o Dejame
TTITLE11=La Union - S te va
TTITLE12=Lydia - Nunca te Olvido
TTITLE13=Luis Enrique - Trampa del Destino
TTITLE14=Manolo Tena - Bolero´s way
EXTD=
EXTT0=
EXTT1=
EXTT2=
EXTT3=
EXTT4=
EXTT5=
EXTT6=
EXTT7=
EXTT8=
EXTT9=
EXTT10=
EXTT11=
EXTT12=
EXTT13=
EXTT14=
PLAYORDER=
